<svg width="746" height="4" viewBox="0 0 746 4" fill="none" xmlns="http://www.w3.org/2000/svg">
<path d="M745 1.5C736.347 1.5 736.347 2.47 727.701 2.47C719.055 2.47 719.048 2.37001 710.402 2.37001C701.756 2.37001 701.748 2.21001 693.102 2.21001C684.456 2.21001 684.449 2.38 675.803 2.38C667.157 2.38 667.15 2.3 658.504 2.3C649.858 2.3 649.851 1.63 641.205 1.63C632.559 1.63 632.552 2.08 623.906 2.08C615.26 2.08 615.252 2.40001 606.606 2.40001C597.96 2.40001 597.953 1.90001 589.307 1.90001C580.661 1.90001 580.661 2.24001 572.008 2.24001C563.355 2.24001 563.362 2.32001 554.709 2.32001C546.056 2.32001 546.056 1.5 537.41 1.5C528.764 1.5 528.764 2.10001 520.11 2.10001C511.457 2.10001 511.457 1.79001 502.811 1.79001C494.165 1.79001 494.165 2.24001 485.512 2.24001C476.859 2.24001 476.859 2.11 468.213 2.11C459.567 2.11 459.567 2.43001 450.914 2.43001C442.26 2.43001 442.26 2.34001 433.614 2.34001C424.968 2.34001 424.961 1.94 416.315 1.94C407.669 1.94 407.662 2.48001 399.016 2.48001C390.37 2.48001 390.363 1.60001 381.717 1.60001C373.071 1.60001 373.064 1.88 364.41 1.88C355.757 1.88 355.757 1.94 347.111 1.94C338.465 1.94 338.458 2.01001 329.812 2.01001C321.166 2.01001 321.159 1.85001 312.513 1.85001C303.867 1.85001 303.86 2.3 295.214 2.3C286.568 2.3 286.56 2.12001 277.914 2.12001C269.268 2.12001 269.261 2.13 260.608 2.13C251.955 2.13 251.955 1.77 243.309 1.77C234.663 1.77 234.655 2.06001 226.002 2.06001C217.349 2.06001 217.349 1.88 208.703 1.88C200.057 1.88 200.05 2.11 191.397 2.11C182.743 2.11 182.743 2.08 174.09 2.08C165.437 2.08 165.437 1.65001 156.784 1.65001C148.13 1.65001 148.13 2.01001 139.484 2.01001C130.838 2.01001 130.831 2.06001 122.185 2.06001C113.539 2.06001 113.532 1.74001 104.879 1.74001C96.2256 1.74001 96.2256 1.89001 87.5723 1.89001C78.9191 1.89001 78.9191 2.31001 70.2659 2.31001C61.6126 2.31001 61.6126 1.66 52.9594 1.66C44.3061 1.66 44.3061 1.96001 35.6529 1.96001C26.9997 1.96001 26.9997 2.17001 18.3464 2.17001C9.69321 2.17001 9.69325 1.5 1.04002 1.5" stroke="#5F6E82" stroke-width="2" stroke-miterlimit="10" stroke-linecap="round"/>
</svg>
